<?xml version="1.0" encoding="iso-8859-1"?>
<!-- Generator: Adobe Illustrator 19.0.0, SVG Export Plug-In . SVG Version: 6.00 Build 0)  -->
<svg version="1.1" id="Layer_1" xmlns="http://www.w3.org/2000/svg" xmlns:xlink="http://www.w3.org/1999/xlink" x="0px" y="0px"
	 viewBox="0 0 512 512" style="enable-background:new 0 0 512 512;" xml:space="preserve">
<g>
	<g>
		<path d="M255.581,59.97c-73.079,0-132.533,59.455-132.533,132.533s59.455,132.533,132.533,132.533s132.533-59.454,132.533-132.533
			S328.66,59.97,255.581,59.97z M255.58,309.339c-64.423,0-116.834-52.412-116.834-116.834S191.158,75.669,255.58,75.669
			s116.835,52.412,116.835,116.834S320.003,309.339,255.58,309.339z"/>
	</g>
</g>
<g>
	<g>
		<path d="M330.742,173.935l-51.935-7.546l-23.226-47.062l-23.226,47.062l-51.935,7.546L218,210.566l-8.871,51.726l46.452-24.421
			l46.452,24.421l-8.871-51.726L330.742,173.935z M255.581,220.135l-25.601,13.459l4.889-28.509l-20.712-20.189l28.624-4.159
			l12.801-25.937l12.801,25.937l28.624,4.159l-20.712,20.189l4.889,28.509L255.581,220.135z"/>
	</g>
</g>
<g>
	<g>
		<polygon points="451.821,25.343 451.821,13.289 436.122,13.289 436.122,25.343 424.068,25.343 424.068,41.042 436.122,41.042 
			436.122,53.096 451.821,53.096 451.821,41.042 463.875,41.042 463.875,25.343 		"/>
	</g>
</g>
<g>
	<g>
		<polygon points="499.946,348.488 499.946,336.434 484.247,336.434 484.247,348.488 472.193,348.488 472.193,364.188 
			484.247,364.188 484.247,376.241 499.946,376.241 499.946,364.188 512,364.188 512,348.488 		"/>
	</g>
</g>
<g>
	<g>
		<polygon points="225.041,475.361 225.041,463.307 209.342,463.307 209.342,475.361 197.287,475.361 197.287,491.06 
			209.342,491.06 209.342,503.114 225.041,503.114 225.041,491.06 237.095,491.06 237.095,475.361 		"/>
	</g>
</g>
<g>
	<g>
		<polygon points="31.593,162.36 31.593,146.466 15.894,146.466 15.894,162.36 0,162.36 0,178.059 15.894,178.059 15.894,193.953 
			31.593,193.953 31.593,178.059 47.487,178.059 47.487,162.36 		"/>
	</g>
</g>
<g>
	<g>
		<path d="M255.58,88.93c-57.11,0-103.574,46.463-103.574,103.574S198.47,296.077,255.58,296.077s103.574-46.463,103.574-103.574
			S312.692,88.93,255.58,88.93z M255.58,280.378c-48.454,0-87.875-39.421-87.875-87.874c0-48.454,39.421-87.875,87.875-87.875
			c48.454,0,87.875,39.421,87.875,87.875C343.455,240.958,304.035,280.378,255.58,280.378z"/>
	</g>
</g>
<g>
	<g>
		<path d="M382.072,317.656l34.246-8.353l-4.927-66.17l42.866-50.629l-42.866-50.63l4.927-66.169l-64.47-15.725L316.988,3.497
			l-61.408,25.22l-61.408-25.22l-34.858,56.483l-64.47,15.725l4.927,66.169l-42.866,50.63l42.866,50.629l-4.927,66.17l34.246,8.353
			L19.919,426.827l69.087,12.589l12.589,69.087l150.974-150.974l3.012-1.237l3.012,1.237l150.974,150.974l12.589-69.087
			l69.087-12.589L382.072,317.656z M93.114,424.207l-40.916-7.455l94.741-94.742l12.375,3.018l12.586,20.393l-52.173,52.172
			L93.114,424.207z M111.67,476.224l-7.455-40.916l76.158-76.158l13.801,22.362l20.719-8.51L111.67,476.224z M255.58,339.318
			l-55.045,22.609l-8.754-14.186l-0.457-0.742l-8.015-12.987l-14.016-22.71l-27.211-6.638l-30.594-7.462l4.416-59.311
			l-38.428-45.387l38.428-45.388l-4.416-59.31l57.803-14.099l31.243-50.626l55.047,22.608l55.047-22.608l31.243,50.626
			l57.803,14.099l-4.416,59.31l38.428,45.388l-38.428,45.387l4.416,59.311l-30.593,7.462l-27.211,6.638l-14.016,22.71l-6.525,10.572
			l-1.949,3.158l-8.754,14.185L255.58,339.318z M399.491,476.224L296.267,373.001l9.299,3.819l11.423,4.691l13.8-22.361
			l76.158,76.158L399.491,476.224z M418.047,424.206l-26.613-26.613l-52.173-52.172l12.586-20.393l12.375-3.017l94.741,94.741
			L418.047,424.206z"/>
	</g>
</g>
<g>
</g>
<g>
</g>
<g>
</g>
<g>
</g>
<g>
</g>
<g>
</g>
<g>
</g>
<g>
</g>
<g>
</g>
<g>
</g>
<g>
</g>
<g>
</g>
<g>
</g>
<g>
</g>
<g>
</g>
</svg>
