<svg id="svg" version="1.1" width="400" height="169.96805111821087" viewBox="0 0 400 169.96805111821087" xmlns="http://www.w3.org/2000/svg" xmlns:xlink="http://www.w3.org/1999/xlink" ><g id="svgg"><path id="path0" d="M19.419 85.635 L 19.465 89.333 29.409 89.333 L 39.354 89.333 39.400 85.635 L 39.446 81.938 29.409 81.938 L 19.373 81.938 19.419 85.635 M106.361 82.051 C 106.089 82.323,106.236 89.207,106.516 89.315 C 107.149 89.557,289.623 89.427,289.826 89.184 C 289.961 89.020,290.006 87.897,289.974 85.486 L 289.928 82.023 198.201 81.980 C 147.751 81.957,106.423 81.989,106.361 82.051 M356.766 82.050 C 356.550 82.266,356.634 88.992,356.855 89.214 C 357.093 89.451,376.300 89.511,376.672 89.275 C 376.838 89.170,376.877 88.313,376.842 85.581 L 376.796 82.023 366.838 81.979 C 361.361 81.955,356.829 81.987,356.766 82.050 " stroke="none" fill="#ffffff" fill-rule="evenodd"></path><path id="path1" d="M44.822 21.873 C 44.760 21.935,44.709 50.659,44.709 85.703 L 44.709 149.420 45.091 149.513 C 45.302 149.564,48.725 149.584,52.699 149.558 L 59.924 149.511 59.966 85.635 L 60.009 21.759 52.472 21.759 C 48.327 21.759,44.885 21.810,44.822 21.873 M65.212 22.027 C 65.021 22.524,65.093 148.910,65.284 149.267 C 65.514 149.696,80.035 149.791,80.387 149.366 C 80.528 149.196,80.567 132.400,80.536 85.490 L 80.493 21.844 72.905 21.800 C 66.095 21.761,65.305 21.784,65.212 22.027 M85.757 21.970 C 85.712 22.088,85.695 50.833,85.719 85.848 L 85.763 149.511 93.328 149.511 L 100.892 149.511 100.892 85.678 L 100.892 21.844 93.366 21.800 C 87.435 21.765,85.821 21.801,85.757 21.970 M295.325 85.634 L 295.368 149.511 302.592 149.558 C 306.566 149.584,309.989 149.564,310.200 149.513 L 310.583 149.420 310.540 85.632 L 310.497 21.844 302.890 21.800 L 295.282 21.756 295.325 85.634 M315.761 21.970 C 315.717 22.088,315.700 50.833,315.724 85.848 L 315.767 149.511 323.332 149.511 L 330.897 149.511 330.897 85.678 L 330.897 21.844 323.370 21.800 C 317.439 21.765,315.826 21.801,315.761 21.970 M336.195 21.873 C 336.133 21.935,336.082 50.659,336.082 85.703 L 336.082 149.420 336.464 149.513 C 336.674 149.564,340.098 149.584,344.071 149.558 L 351.296 149.511 351.339 85.635 L 351.382 21.759 343.845 21.759 C 339.700 21.759,336.257 21.810,336.195 21.873 M19.143 82.037 C 18.963 82.505,19.028 88.908,19.216 89.259 C 19.386 89.578,19.679 89.588,29.409 89.588 C 39.140 89.588,39.432 89.578,39.603 89.259 C 39.791 88.908,39.856 82.505,39.676 82.037 C 39.518 81.626,19.300 81.626,19.143 82.037 M106.154 81.984 C 106.108 82.104,106.091 83.844,106.116 85.852 L 106.162 89.503 197.942 89.545 C 266.412 89.577,289.782 89.539,289.956 89.394 C 290.143 89.239,290.180 88.476,290.143 85.527 L 290.098 81.853 198.167 81.810 C 123.763 81.776,106.221 81.809,106.154 81.984 M356.596 81.880 C 356.356 82.120,356.466 89.193,356.713 89.398 C 356.880 89.538,359.703 89.578,366.955 89.547 L 376.966 89.503 376.966 85.678 L 376.966 81.853 366.838 81.809 C 361.268 81.785,356.659 81.817,356.596 81.880 M39.400 85.635 L 39.354 89.333 29.409 89.333 L 19.465 89.333 19.419 85.635 L 19.373 81.938 29.409 81.938 L 39.446 81.938 39.400 85.635 M289.974 85.486 C 290.006 87.897,289.961 89.020,289.826 89.184 C 289.623 89.427,107.149 89.557,106.516 89.315 C 106.236 89.207,106.089 82.323,106.361 82.051 C 106.423 81.989,147.751 81.957,198.201 81.980 L 289.928 82.023 289.974 85.486 M376.842 85.581 C 376.877 88.313,376.838 89.170,376.672 89.275 C 376.300 89.511,357.093 89.451,356.855 89.214 C 356.634 88.992,356.550 82.266,356.766 82.050 C 356.829 81.987,361.361 81.955,366.838 81.979 L 376.796 82.023 376.842 85.581 " stroke="none" fill="#00bbff" fill-rule="evenodd"></path></g></svg>
